<svg version="1.1" id="Layer_1" xmlns="http://www.w3.org/2000/svg" xmlns:xlink="http://www.w3.org/1999/xlink" x="0px" y="0px"
	 width="100%" viewBox="0 0 505 494" enable-background="new 0 0 505 494" xml:space="preserve">
<path fill="#000000" opacity="1.000000" stroke="none" 
	d="
M337.000000,495.000000 
	C226.000031,495.000000 115.500031,494.979645 5.000179,495.095337 
	C1.576374,495.098938 0.902985,494.423889 0.905281,491.000031 
	C1.013942,329.000122 1.013925,167.000153 0.905322,5.000260 
	C0.903027,1.576981 1.575760,0.903059 4.999863,0.905298 
	C170.666412,1.013637 336.333069,1.013623 501.999634,0.905368 
	C505.422638,0.903131 506.097046,1.575398 506.094757,4.999744 
	C505.986053,166.999634 505.986084,328.999603 506.094635,490.999512 
	C506.096924,494.422272 505.426147,495.105865 502.000183,495.097260 
	C447.167053,494.959320 392.333466,495.000000 337.000000,495.000000 
z"/>
<path fill="#DA0000" opacity="1.000000" stroke="none" 
	d="
M212.167938,115.124420 
	C224.655121,91.770821 238.004105,69.417702 251.688049,46.859669 
	C259.602600,60.427479 267.388824,73.703285 275.104828,87.019798 
	C286.439026,106.580727 297.717499,126.173935 309.029785,145.747574 
	C323.843781,171.380356 338.637878,197.024689 353.494690,222.632629 
	C371.697998,254.008804 389.987854,285.334778 408.184296,316.714935 
	C428.385284,351.551971 448.490021,386.444885 468.735565,421.255951 
	C470.966248,425.091461 470.110535,426.282959 465.924744,425.912415 
	C464.602112,425.795319 463.262146,425.874054 461.470276,425.794006 
	C456.877869,422.617981 453.831573,418.804169 452.181213,413.766754 
	C451.284363,411.029358 449.537811,408.554138 445.698853,408.339355 
	C444.836060,407.628113 444.399719,407.022156 443.771057,406.102661 
	C443.002686,405.017731 442.426910,404.243561 441.783997,403.087494 
	C427.160614,377.289490 411.994293,352.217499 397.451965,326.786743 
	C380.017853,296.299042 362.143768,266.068329 344.351593,235.793716 
	C324.871155,202.646423 305.578247,169.389572 286.116669,136.231522 
	C275.847076,118.734512 265.401581,101.335716 255.509445,83.617165 
	C254.555878,81.909126 253.787186,80.017609 251.661926,78.768021 
	C247.952408,82.838760 245.963074,88.018631 242.627716,92.684792 
	C242.182312,93.867188 241.821640,94.704758 241.004669,95.667107 
	C239.313492,97.283112 238.342331,98.970589 237.506622,101.126556 
	C237.216751,101.832260 237.034454,102.227554 236.658264,102.885742 
	C234.982285,104.702202 233.650528,106.344597 233.252808,108.887039 
	C232.904694,110.293694 232.326813,111.193970 231.221710,112.135757 
	C229.588928,113.617722 229.147308,115.440659 228.056488,117.303673 
	C227.734772,117.830620 227.591583,118.037582 227.203857,118.543037 
	C225.434265,120.261528 224.772034,122.787933 221.627182,122.748024 
	C214.595154,123.706490 212.598282,122.113144 212.167938,115.124420 
z"/>
<path fill="#C70000" opacity="1.000000" stroke="none" 
	d="
M271.680695,337.466858 
	C284.789398,337.185120 297.567963,337.185120 311.305176,337.185120 
	C290.858063,299.524109 270.914398,262.790375 250.757385,225.663742 
	C239.302765,242.483582 231.128311,260.399506 221.416809,277.828033 
	C216.209854,280.890594 215.328247,280.479034 211.190704,273.220947 
	C208.858047,270.332977 210.652374,268.119293 211.720261,265.987885 
	C218.364090,252.727417 225.756638,239.869980 232.943146,226.902130 
	C237.220215,219.184280 240.926910,211.139603 246.038086,203.898102 
	C250.010223,198.270370 252.237030,198.391281 255.567673,204.507782 
	C276.279633,242.543991 296.931335,280.612976 317.641296,318.650269 
	C322.024200,326.700226 326.410400,334.743927 330.338257,343.027710 
	C333.825592,350.382294 332.643616,352.420959 324.718842,352.466614 
	C310.554504,352.548248 296.389618,352.515198 282.225037,352.471161 
	C280.246490,352.464996 278.210236,352.656189 276.089905,351.294922 
	C275.287415,348.056488 272.689026,346.510284 271.245178,344.186523 
	C269.839386,341.924042 269.037781,339.862549 271.680695,337.466858 
z"/>
<path fill="#B50000" opacity="1.000000" stroke="none" 
	d="
M311.324860,425.511200 
	C293.067017,425.819763 275.117523,425.818085 257.169586,425.985596 
	C254.425415,426.011230 253.534378,424.602020 252.541870,422.477356 
	C239.816940,395.236908 227.027740,368.026428 214.197876,340.835236 
	C213.038422,338.377960 212.508987,336.651031 216.630157,337.083984 
	C223.083328,342.335938 226.432709,349.628571 231.343124,355.715149 
	C232.911621,357.659332 234.120270,359.719635 237.365112,359.676636 
	C243.112869,366.381409 245.444870,374.516144 249.095993,381.946899 
	C252.540771,388.957703 256.047913,395.968719 258.958435,403.227997 
	C261.386230,409.283325 265.537292,411.802368 272.108978,411.590302 
	C282.417877,411.257721 292.745941,411.483673 303.065796,411.516083 
	C305.388062,411.523376 307.733643,411.338989 310.362061,412.231934 
	C311.842560,416.646088 313.594543,420.818329 311.324860,425.511200 
z"/>
<path fill="#B00000" opacity="1.000000" stroke="none" 
	d="
M190.939758,332.666809 
	C184.929581,344.409637 178.849258,355.822662 172.700577,367.198761 
	C168.463242,375.038605 164.131241,382.827301 159.641022,390.900269 
	C153.839767,394.550659 151.713760,393.374268 150.179840,385.791016 
	C148.208023,383.511688 148.562881,381.517670 149.703461,379.482269 
	C159.171387,362.586487 168.041443,345.364807 177.509323,328.468903 
	C178.248230,327.150299 179.054871,325.910553 180.967560,325.393921 
	C186.053314,325.584625 187.593613,330.122070 190.939758,332.666809 
z"/>
<path fill="#BE0000" opacity="1.000000" stroke="none" 
	d="
M236.399612,360.862244 
	C234.512253,360.806122 233.030289,360.422089 231.963120,359.303131 
	C225.894623,352.940216 220.161636,346.333801 217.063293,337.514832 
	C235.033310,337.118805 253.057587,337.079498 271.546326,337.112671 
	C271.323700,342.065948 275.909912,344.764160 276.947693,349.290833 
	C276.509186,353.073883 273.686249,352.367798 271.576447,352.414551 
	C262.813477,352.608734 254.045853,352.445831 245.280411,352.511078 
	C238.565643,352.561066 238.432449,352.727661 237.609360,359.524902 
	C237.549301,360.020813 237.138153,360.380066 236.399612,360.862244 
z"/>
<path fill="#BC0000" opacity="1.000000" stroke="none" 
	d="
M191.285065,332.777679 
	C185.541122,335.172729 184.829315,329.918396 182.086472,327.179077 
	C178.775635,324.973450 180.859421,322.779755 181.808838,320.939331 
	C186.964111,310.945984 192.414566,301.107544 197.784058,291.227753 
	C200.863266,285.562042 203.597382,279.702393 207.090012,274.266357 
	C208.018448,272.821320 208.612366,270.715607 211.456879,271.748535 
	C215.074722,273.376923 215.941711,278.251953 220.796158,278.036102 
	C216.591110,286.883057 211.745880,295.539307 206.696869,304.104004 
	C201.245941,313.350464 196.554077,323.044342 191.285065,332.777679 
z"/>
<path fill="#A20000" opacity="1.000000" stroke="none" 
	d="
M45.792168,401.360107 
	C55.692047,383.746521 65.575439,366.583130 75.718338,349.204712 
	C77.824409,347.560608 79.284409,348.547058 80.647385,349.791992 
	C82.192612,351.203430 84.034904,352.220215 85.850220,353.899567 
	C87.877449,356.326080 86.676254,358.311615 85.657013,360.176849 
	C77.287132,375.493805 67.727623,390.118011 59.244762,405.374481 
	C58.219482,407.218414 57.134590,409.679749 53.869003,409.811462 
	C47.460487,409.865997 45.543518,407.868164 45.792168,401.360107 
z"/>
<path fill="#9B0000" opacity="1.000000" stroke="none" 
	d="
M45.553818,401.124451 
	C47.813095,403.956207 48.880486,408.028168 54.036934,408.108185 
	C57.656868,410.848572 61.396877,411.530579 65.525887,411.562195 
	C74.278656,411.629181 83.049515,410.934998 92.134659,412.141907 
	C94.126266,414.925903 94.721436,417.450378 90.749985,418.226074 
	C87.730125,418.815887 85.772568,419.915985 85.918579,423.322510 
	C85.957878,424.239288 85.156647,424.739227 84.285126,425.531189 
	C67.571747,425.813843 51.132858,425.852478 34.694267,425.943817 
	C32.178101,425.957794 31.241186,425.442413 32.785625,422.854431 
	C37.036942,415.730499 41.138294,408.517059 45.553818,401.124451 
z"/>
<path fill="#A90000" opacity="1.000000" stroke="none" 
	d="
M85.522949,355.254822 
	C80.837738,355.399994 79.357178,351.366150 76.253906,349.187012 
	C85.473831,332.465759 94.969833,315.941895 104.736908,299.220428 
	C108.647018,300.398560 110.270195,304.409393 114.136276,306.093597 
	C115.873436,308.182922 114.869171,309.924011 114.002838,311.454407 
	C105.990067,325.609497 97.849167,339.691162 89.408737,353.597107 
	C88.611237,354.911041 87.742928,356.174683 85.522949,355.254822 
z"/>
<path fill="#A60000" opacity="1.000000" stroke="none" 
	d="
M150.336411,383.713074 
	C153.169785,386.444794 153.256546,391.671021 159.017548,391.126404 
	C153.579605,401.984253 147.679535,412.785889 141.893921,423.648529 
	C140.852066,425.604645 139.409195,426.011597 137.425446,425.968018 
	C132.930023,425.869110 128.431656,425.904846 123.470673,425.824005 
	C121.952850,424.941223 120.738922,424.275543 119.754982,423.445923 
	C116.795471,420.950409 117.327843,416.960205 120.795189,415.378906 
	C122.770378,414.478149 124.196121,412.813934 126.568398,411.875671 
	C131.063171,411.476746 133.478104,409.076752 135.376266,405.603363 
	C138.889481,399.174622 142.185318,392.620789 146.030457,386.378021 
	C146.927597,384.921448 147.465317,382.749786 150.336411,383.713074 
z"/>
<path fill="#C20000" opacity="1.000000" stroke="none" 
	d="
M311.480194,425.826904 
	C310.697021,422.088470 306.756500,418.817902 309.894806,414.447357 
	C310.657349,411.514252 312.920990,411.629944 314.783936,411.622589 
	C328.806122,411.567261 342.831909,411.140808 357.315125,411.957336 
	C360.125366,416.140259 363.012817,420.083588 360.364258,425.478333 
	C343.987946,425.808167 327.966156,425.847931 311.480194,425.826904 
z"/>
<path fill="#D10000" opacity="1.000000" stroke="none" 
	d="
M211.901581,114.816177 
	C214.646072,117.475937 216.064529,121.884552 221.619736,121.003448 
	C225.060699,122.686501 224.286118,124.726974 222.741882,127.023537 
	C220.299255,130.656097 217.663681,134.177765 215.683380,138.549530 
	C215.186356,139.884659 214.728210,140.800217 213.785736,141.877731 
	C208.872437,147.637726 206.706345,154.622879 202.478271,160.363373 
	C201.600555,161.555084 201.110886,163.035751 199.044357,163.520401 
	C196.147995,163.229843 193.615585,164.891647 191.201736,162.790894 
	C188.157654,160.141663 188.842117,157.032730 189.751190,153.386444 
	C196.647522,139.990768 204.338562,127.609711 211.901581,114.816177 
z"/>
<path fill="#CA0000" opacity="1.000000" stroke="none" 
	d="
M360.473877,425.832886 
	C360.230530,421.941315 356.139374,418.969238 357.926208,414.508301 
	C358.520660,411.769623 360.520538,411.685516 362.298035,411.673767 
	C376.265991,411.581421 390.239197,411.006195 404.667755,412.139038 
	C407.240173,414.990051 407.977020,418.369019 409.618286,421.305603 
	C410.360626,422.633789 409.983673,424.072449 408.384460,425.449524 
	C392.317352,425.801117 376.627655,425.849213 360.473877,425.832886 
z"/>
<path fill="#B20000" opacity="1.000000" stroke="none" 
	d="
M113.707611,307.319153 
	C108.622437,306.897705 105.933739,304.368042 105.062820,299.385864 
	C112.819984,285.455536 120.631981,271.888245 128.700684,258.098938 
	C130.908890,257.922943 131.202957,259.499207 131.769302,260.867706 
	C132.807251,263.375763 134.403107,265.444244 137.023804,267.145142 
	C138.756027,268.992859 137.857788,270.468719 137.053802,271.922821 
	C130.877670,283.092896 124.348373,294.057983 117.797302,305.009827 
	C116.966370,306.398956 116.246880,308.097504 113.707611,307.319153 
z"/>
<path fill="#B90000" opacity="1.000000" stroke="none" 
	d="
M136.550980,268.251190 
	C130.883545,267.189178 129.188126,263.517975 128.977356,258.283508 
	C136.129791,245.391449 143.302200,232.905945 150.737946,220.212067 
	C153.164688,219.848816 153.543335,221.729004 154.374084,223.031128 
	C155.723267,225.145767 157.507782,226.744278 159.991150,228.157867 
	C161.716705,229.986206 160.874939,231.474472 160.045532,232.920700 
	C153.731384,243.930618 147.229034,254.829407 140.556091,265.624878 
	C139.737076,266.949890 139.017593,268.685028 136.550980,268.251190 
z"/>
<path fill="#C70000" opacity="1.000000" stroke="none" 
	d="
M189.706741,153.151917 
	C191.477539,161.309280 192.214966,162.037781 198.650177,161.083191 
	C201.345749,162.395187 200.221008,163.903748 199.334991,165.621048 
	C193.466507,176.995514 186.169693,187.537292 180.088989,198.784958 
	C179.484558,199.902985 178.674728,200.613037 176.895126,200.419769 
	C169.544983,199.082275 167.509888,196.445877 168.712158,189.800507 
	C175.135010,177.046661 182.405685,165.266602 189.706741,153.151917 
z"/>
<path fill="#A30000" opacity="1.000000" stroke="none" 
	d="
M128.829590,413.641357 
	C128.144226,415.253998 126.944344,415.664581 125.595322,415.986511 
	C119.700584,417.393158 119.521362,417.844177 122.209351,423.203094 
	C122.504776,423.792114 122.656364,424.453217 122.940765,425.421509 
	C110.317963,425.799683 97.629059,425.837189 84.475349,425.816345 
	C81.886703,417.694214 81.890022,417.706818 89.874474,415.605225 
	C90.474197,415.447388 90.978760,414.927979 91.764580,414.300598 
	C92.497032,412.269745 93.932426,411.837524 95.456512,411.773254 
	C105.676628,411.342407 115.899841,411.286499 126.116920,411.832886 
	C127.031769,411.881836 128.087311,412.190887 128.829590,413.641357 
z"/>
<path fill="#C20000" opacity="1.000000" stroke="none" 
	d="
M168.511520,189.595520 
	C169.941620,193.520920 171.581711,197.322723 176.570007,198.833054 
	C178.318924,199.950668 178.876556,201.138809 177.742615,202.701859 
	C172.127335,210.441940 168.790298,219.554886 162.985580,227.183273 
	C162.107574,228.337128 161.577148,229.922836 159.280304,229.179550 
	C153.552139,228.882767 151.853806,225.271164 151.055969,220.377335 
	C156.144302,209.603043 162.084106,199.658234 168.511520,189.595520 
z"/>
<path fill="#D40000" opacity="1.000000" stroke="none" 
	d="
M446.746094,406.200592 
	C448.363708,406.248871 449.565887,406.781250 450.319946,407.958923 
	C453.930664,413.597992 458.458923,418.669800 460.954773,425.379272 
	C452.651245,425.780090 444.292084,425.835297 435.469299,425.820099 
	C433.915009,424.909973 433.048340,423.807281 432.013641,422.945404 
	C428.981964,420.420074 428.098236,417.645477 430.472229,413.823730 
	C431.809418,410.860046 434.280457,411.462006 436.260956,411.590210 
	C440.793976,411.883667 444.767914,411.510559 446.746094,406.200592 
z"/>
<path fill="#D10000" opacity="1.000000" stroke="none" 
	d="
M431.831543,413.676941 
	C430.061768,418.583099 434.726837,421.208771 434.976837,425.394073 
	C426.315460,425.795624 417.625214,425.841522 408.471008,425.820251 
	C408.048798,421.871796 404.293335,419.045074 405.010132,414.578308 
	C405.248810,412.564240 406.512299,411.932434 407.824371,411.856262 
	C415.240509,411.425781 422.665802,411.006714 430.066498,412.121948 
	C430.760498,412.226532 431.260437,412.634705 431.831543,413.676941 
z"/>
<path fill="#010000" opacity="1.000000" stroke="none" 
	d="
M432.466522,414.100647 
	C423.313324,414.127747 414.623932,414.087860 405.470398,414.114624 
	C389.649902,414.135498 374.293518,414.089691 358.472595,414.106384 
	C342.318390,414.113770 326.628693,414.058716 310.474731,414.066956 
	C295.348999,414.044067 280.686676,413.841583 266.026764,413.953918 
	C262.379456,413.981812 260.447754,412.953430 258.877258,409.481720 
	C251.603775,393.403290 243.989868,377.478851 236.259613,361.250061 
	C235.344086,359.311035 234.739838,357.587433 233.976562,355.937378 
	C231.130554,349.784851 231.110962,349.817413 238.125702,349.820618 
	C250.779068,349.826355 263.432434,349.800903 276.548889,349.706238 
	C293.499512,349.695740 309.987396,349.727966 326.474396,349.862030 
	C331.800140,349.905334 329.689056,347.176270 328.443451,344.854462 
	C317.977295,325.345795 307.505646,305.839935 296.975250,286.365906 
	C282.408875,259.428009 267.702789,232.565018 253.279358,205.550964 
	C250.876282,201.050156 249.648499,202.600159 247.960678,205.651398 
	C238.063202,223.544052 228.166443,241.437119 218.296951,259.345215 
	C216.129440,263.278168 214.073166,267.272430 211.878265,271.590027 
	C203.621887,286.673828 195.437958,301.397827 187.295395,316.144684 
	C185.456787,319.474518 183.762161,322.883850 181.912415,326.605713 
	C174.219208,339.239746 167.839035,352.201843 160.871765,364.839111 
	C157.504166,370.947327 154.185410,377.082489 150.748016,383.556244 
	C145.744080,392.668121 140.754990,401.385071 135.979385,410.217407 
	C134.557983,412.846222 132.827057,414.330170 129.394257,414.056702 
	C116.978531,414.042786 104.954124,413.963013 92.465668,413.953888 
	C80.386505,413.921417 68.770096,413.678070 57.156948,413.785980 
	C52.666279,413.827728 51.673691,412.563324 54.320274,408.483398 
	C64.629883,390.689972 74.822906,373.225830 85.100777,355.413086 
	C92.832039,343.747772 99.073021,331.593994 106.109985,319.914001 
	C108.514610,315.922852 110.786041,311.851379 113.240524,307.477417 
	C120.909172,294.341095 128.455627,281.544006 136.105301,268.408478 
	C143.738235,255.270096 151.267944,242.470139 158.869553,229.326843 
	C164.038712,220.888596 168.966614,212.692184 173.042892,204.027786 
	C173.927338,202.147842 175.808868,201.325714 176.847275,199.315338 
	C182.752441,189.213852 187.881393,179.024231 194.226227,169.540421 
	C195.909500,167.024384 196.170715,163.628098 198.959702,161.357849 
	C202.289673,153.741837 207.834869,147.732788 210.757263,139.847702 
	C211.509460,139.259430 212.012253,138.940735 212.575928,138.228439 
	C214.161774,131.614059 219.255859,127.341629 222.021362,121.373367 
	C222.828903,119.396698 223.628769,117.784142 224.757202,116.070267 
	C225.188766,116.109901 225.291748,116.250862 225.557709,116.186882 
	C226.430344,114.145401 227.139969,112.308861 227.884216,110.101807 
	C228.596771,109.216652 229.461990,109.038223 230.300659,108.234711 
	C231.439148,105.755707 232.404358,103.543022 233.683624,101.168594 
	C234.366638,100.959320 234.583618,100.746033 234.833847,100.195312 
	C235.814056,97.979462 236.630554,95.958694 237.663147,93.633270 
	C238.474380,93.166283 239.019943,92.916191 239.616791,92.197708 
	C239.349518,86.187141 245.151993,83.805199 247.014679,79.068466 
	C247.898804,76.820145 249.208313,73.691078 251.567322,71.448448 
	C315.595032,181.157059 379.603271,290.832306 443.870087,400.733643 
	C444.817352,401.741699 445.227325,402.682678 445.792603,403.889099 
	C446.153198,404.660217 446.367279,405.160858 446.804260,405.827332 
	C448.210083,408.344086 449.393066,410.695038 451.073090,414.033691 
	C444.654419,414.033691 438.792358,414.033691 432.466522,414.100647 
z"/>
<path fill="#D10000" opacity="1.000000" stroke="none" 
	d="
M230.209961,108.029404 
	C230.406113,109.297859 229.473801,109.445099 228.179932,109.593124 
	C228.594559,109.184341 229.270264,108.637375 230.209961,108.029404 
z"/>
<path fill="#D40000" opacity="1.000000" stroke="none" 
	d="
M445.890564,403.842407 
	C445.374817,403.297974 444.810516,402.436371 444.187439,401.267273 
	C445.046570,401.583313 445.643463,402.421265 445.890564,403.842407 
z"/>
<path fill="#B00000" opacity="1.000000" stroke="none" 
	d="
M239.562012,92.027695 
	C239.911331,92.935204 239.543106,93.487114 238.179947,93.374481 
	C238.363510,92.921265 238.847778,92.513924 239.562012,92.027695 
z"/>
<path fill="#D10000" opacity="1.000000" stroke="none" 
	d="
M234.821106,100.158051 
	C234.981857,100.595055 235.293045,101.362511 234.124069,101.210953 
	C234.199829,100.763878 234.415482,100.533554 234.821106,100.158051 
z"/>
<path fill="#D10000" opacity="1.000000" stroke="none" 
	d="
M225.562103,115.972862 
	C225.685959,116.344193 225.729034,116.830971 225.121552,116.151489 
	C225.085770,115.968948 225.403488,115.963776 225.562103,115.972862 
z"/>
<path fill="#C70000" opacity="1.000000" stroke="none" 
	d="
M212.535858,138.093567 
	C212.847336,138.887436 212.498199,139.455261 211.269455,139.562317 
	C211.427551,139.096588 211.873901,138.648712 212.535858,138.093567 
z"/>
</svg>